HIERARCHY
ROOT Hips
{
     OFFSET 27.98490 95.20650 -33.74910
     CHANNELS 6 Xposition Yposition Zposition Zrotation Xrotation Yrotation
     JOINT Spine
     {
          OFFSET 0.00000 11.89050 0.00000
          CHANNELS 3 Zrotation Xrotation Yrotation
          JOINT Spine1
          {
               OFFSET 0.00000 25.65740 0.12766
               CHANNELS 3 Zrotation Xrotation Yrotation
               JOINT HEad
               {
                    OFFSET 0.00000 8.73416 0.01134
                    CHANNELS 3 Zrotation Xrotation Yrotation
                    End Site
                    {
                         OFFSET -0.29000 12.77420 2.51395
                    }
               }
               JOINT LeftShoulder1
               {
                    OFFSET 8.99000 -0.36225 -0.22000
                    CHANNELS 3 Zrotation Xrotation Yrotation
                    JOINT LeftArm
                    {
                         OFFSET 10.28270 -0.00338 0.32212
                         CHANNELS 3 Zrotation Xrotation Yrotation
                         JOINT LeftForeArm
                         {
                              OFFSET 32.76690 0.09914 -1.42434
                              CHANNELS 3 Zrotation Xrotation Yrotation
                              JOINT LeftHand
                              {
                                   OFFSET 27.56430 0.08536 1.02216
                                   CHANNELS 3 Zrotation Xrotation Yrotation
                                   End Site
                                   {
                                        OFFSET 16.74430 -0.60000 1.50291
                                   }
                              }
                         }
                    }
               }
               JOINT RightShoulder
               {
                    OFFSET -8.99000 -0.36225 -0.22000
                    CHANNELS 3 Zrotation Xrotation Yrotation
                    JOINT RightArm
                    {
                         OFFSET -10.28270 -0.00338 0.32212
                         CHANNELS 3 Zrotation Xrotation Yrotation
                         JOINT RightForeArm
                         {
                              OFFSET -32.89710 0.09914 -1.42434
                              CHANNELS 3 Zrotation Xrotation Yrotation
                              JOINT RightHand
                              {
                                   OFFSET -27.49210 0.08536 1.02216
                                   CHANNELS 3 Zrotation Xrotation Yrotation
                                   End Site
                                   {
                                        OFFSET -16.63120 -0.60000 1.50291
                                   }
                              }
                         }
                    }
               }
          }
     }
     JOINT LeftUpLeg
     {
          OFFSET 8.94580 -8.66707 0.10165
          CHANNELS 3 Zrotation Xrotation Yrotation
          JOINT LeftLeg
          {
               OFFSET 0.00000 -44.42270 1.37270
               CHANNELS 3 Zrotation Xrotation Yrotation
               JOINT LeftFoot
               {
                    OFFSET -0.25355 -42.09240 -1.46059
                    CHANNELS 3 Zrotation Xrotation Yrotation
                    JOINT LeftToes
                    {
                         OFFSET -0.04000 -4.41509 8.49910
                         CHANNELS 3 Zrotation Xrotation Yrotation
                         End Site
                         {
                              OFFSET 0.08000 -0.04745 9.77979
                         }
                    }
               }
          }
     }
     JOINT RightUpLeg
     {
          OFFSET -8.94580 -8.66707 0.10165
          CHANNELS 3 Zrotation Xrotation Yrotation
          JOINT RightLeg
          {
               OFFSET 0.00000 -44.42270 1.37270
               CHANNELS 3 Zrotation Xrotation Yrotation
               JOINT RightFoot
               {
                    OFFSET 0.25355 -42.09240 -1.46059
                    CHANNELS 3 Zrotation Xrotation Yrotation
                    JOINT RightToes
                    {
                         OFFSET 0.04000 -4.41509 8.49910
                         CHANNELS 3 Zrotation Xrotation Yrotation
                         End Site
                         {
                              OFFSET -0.08000 -0.13745 9.77979
                         }
                    }
               }
          }
     }
}
MOTION
Frames: 10
Frame Time: 0.01667
27.98490 95.20650 -33.74910 -7.46315 -11.12900 -31.56110 5.37512 7.46654 -1.26683 5.38108 15.24470 -2.05459 -9.75753 -2.27965 17.97150 0.00000 0.00000 0.00000 -87.10170 -41.52300 -47.23870 14.36660 33.67720 -98.83810 34.38220 12.57540 13.32480 11.85040 0.72149 2.13971 66.70780 -5.92421 65.43540 4.23801 29.53670 92.25420 2.09071 10.22180 8.87376 16.56840 -12.06210 4.03493 -4.84893 25.06000 14.92900 -3.78232 1.27656 0.27178 -3.68914 -5.06371 -0.51867 -7.50303 -7.44781 -5.30770 1.18365 42.52510 3.67116 3.82785 -29.07650 0.43080 6.68528 24.97710 -11.36670 
28.38700 95.16040 -33.51350 -7.42269 -10.82840 -31.37160 5.44517 7.50598 -1.18396 5.49375 15.32150 -1.89806 -10.17470 -2.63399 18.40590 0.00000 0.00000 0.00000 -87.48300 -41.52050 -47.79070 14.40430 33.75670 -98.83850 34.46750 12.56650 13.27090 11.32580 0.71882 2.24934 67.18610 -5.23103 65.98130 2.92662 29.48610 92.47170 3.13552 10.32000 8.25591 16.77180 -12.78900 4.15207 -5.59319 25.97080 15.05800 -3.67580 0.21502 0.23597 -4.18567 -5.63790 -0.82295 -8.07580 -7.68622 -5.83548 1.75811 42.53380 3.39079 4.32108 -29.42870 0.53954 7.10785 26.19880 -11.40670 
28.79680 95.09840 -33.28720 -7.36356 -10.50240 -31.18930 5.47779 7.55733 -1.07889 5.58167 15.41640 -1.70156 -10.60060 -3.01785 18.97770 0.00000 0.00000 0.00000 -87.84440 -41.63530 -48.45320 14.39280 33.87760 -98.88320 34.52830 12.53990 13.16470 10.77520 0.72404 2.43010 67.73180 -4.48059 66.61710 1.38757 29.45370 92.56620 4.15238 10.40220 7.59164 17.14530 -13.54040 4.49945 -6.54016 26.97060 15.24460 -3.68142 -1.06327 0.20315 -5.19509 -6.79952 -1.41961 -8.61585 -7.98794 -6.30829 2.28818 42.56600 3.06859 4.74144 -29.64800 0.63178 7.33139 26.92380 -11.23180 
29.20610 95.01490 -33.06610 -7.26067 -10.18780 -30.95270 5.43719 7.62221 -0.96303 5.60545 15.52950 -1.47710 -10.99560 -3.41086 19.68090 0.00000 0.00000 0.00000 -88.21610 -41.84060 -49.28710 14.37920 34.03120 -99.04900 34.50750 12.52770 13.12970 10.27580 0.73640 2.66211 68.30220 -3.71677 67.30440 -0.30056 29.47000 92.46070 5.09312 10.46530 6.92539 17.65920 -14.30350 4.92826 -7.72712 28.04860 15.74630 -3.77315 -2.47762 0.17050 -6.75649 -8.51861 -2.41552 -9.16319 -8.33448 -6.72153 2.79381 42.66860 2.71069 5.09951 -29.77800 0.70939 7.41801 27.24830 -11.06710 
29.60520 94.92380 -32.85230 -7.11648 -9.91938 -30.61080 5.31621 7.69991 -0.84166 5.53683 15.66210 -1.23773 -11.33030 -3.83013 20.49680 0.00000 0.00000 0.00000 -88.65060 -42.08330 -50.36480 14.42980 34.20650 -99.41970 34.39310 12.56080 13.27280 9.87693 0.75655 2.93732 68.88740 -2.98155 67.98990 -2.05815 29.55330 92.12070 5.92963 10.51000 6.29325 18.29310 -15.01790 5.27201 -9.18336 29.09820 16.87230 -3.79981 -3.83241 0.13497 -8.71788 -10.50960 -3.83940 -9.72779 -8.65638 -7.07662 3.30024 42.80240 2.26691 5.42855 -29.81870 0.77797 7.40918 27.23980 -11.02760 
29.98280 94.83670 -32.64210 -6.93425 -9.71928 -30.10150 5.10391 7.78775 -0.71749 5.36666 15.80970 -0.99008 -11.59370 -4.28278 21.39820 0.00000 0.00000 0.00000 -89.18230 -42.22660 -51.75020 14.59210 34.38110 -100.03000 34.25690 12.65760 13.63810 9.57546 0.78267 3.24045 69.50450 -2.32077 68.60520 -3.83437 29.70310 91.58730 6.63501 10.53860 5.72756 19.00900 -15.66760 5.43120 -10.86840 30.05400 18.79270 -3.53927 -4.92492 0.09903 -10.81450 -12.40630 -5.58743 -10.30960 -8.88531 -7.36134 3.85119 42.91250 1.60435 5.71750 -29.73250 0.83258 7.27196 26.83670 -11.02840 
30.32760 94.75880 -32.42740 -6.72061 -9.59583 -29.35690 4.81166 7.87958 -0.58859 5.09929 15.96270 -0.72864 -11.76620 -4.72438 22.34750 0.00000 0.00000 0.00000 -89.80680 -42.05800 -53.48050 14.91840 34.53580 -100.89500 34.21770 12.83250 14.24100 9.34980 0.81006 3.53786 69.87620 -1.61858 69.05410 -5.65602 29.53060 90.93910 7.20703 10.55550 5.25115 19.75250 -16.27990 5.40092 -12.63050 30.91150 21.42220 -2.84839 -5.65367 0.06869 -12.72770 -13.90670 -7.40032 -10.89870 -8.96711 -7.58365 4.47733 42.95680 0.60573 5.91447 -29.48630 0.86021 6.97723 25.99280 -10.96790 
30.62990 94.69100 -32.19660 -6.50089 -9.54672 -28.32020 4.47914 7.96654 -0.45722 4.74763 16.10990 -0.45312 -11.77930 -5.07571 23.30930 0.00000 0.00000 0.00000 -90.47340 -41.38270 -55.55050 15.53660 34.64450 -102.06400 34.34460 13.09620 15.08960 9.18951 0.83659 3.81169 69.92240 -0.91143 69.28390 -7.51126 28.95310 90.22080 7.55269 10.55820 4.88961 20.48550 -16.88560 5.27678 -14.22600 31.70510 24.40920 -1.79917 -6.02411 0.04663 -14.15650 -14.84230 -8.94769 -11.46600 -8.85779 -7.78215 5.17454 42.92230 -0.76384 6.01738 -29.10730 0.86160 6.57540 24.82920 -10.88870 
30.88180 94.63650 -31.93900 -6.31068 -9.55793 -26.95500 4.15460 8.03877 -0.33353 4.32605 16.23970 -0.17739 -11.54430 -5.27371 24.23890 0.00000 0.00000 0.00000 -91.04840 -40.05290 -57.90420 16.57060 34.63370 -103.53300 34.61300 13.43380 16.12590 9.08538 0.86530 4.08571 69.99330 -0.46723 69.29320 -9.32532 28.42700 89.47320 7.52685 10.54010 4.66467 21.20970 -17.49020 5.19515 -15.42460 32.42990 27.27430 -0.61318 -6.03687 0.02963 -14.93430 -15.20150 -9.99130 -11.97170 -8.52817 -7.97819 5.94336 42.81180 -2.50470 6.14608 -28.68140 0.86484 6.17509 23.62580 -10.90080 
31.07760 94.60150 -31.64790 -6.16876 -9.61442 -25.24210 3.86880 8.09051 -0.22191 3.83833 16.34580 0.09507 -11.04360 -5.29739 25.02400 0.00000 0.00000 0.00000 -91.31380 -37.91250 -60.45150 17.95190 34.41670 -105.12300 34.94410 13.79720 17.20520 9.03321 0.89983 4.38795 70.16120 -0.33373 69.07690 -11.03210 27.95400 88.67020 7.17096 10.50570 4.56495 21.94150 -18.07250 5.22176 -16.11530 32.98000 29.62610 0.51731 -5.64503 0.00938 -15.04370 -15.04740 -10.46680 -12.39790 -7.96992 -8.15332 6.82177 42.63450 -4.62128 6.47142 -28.28500 0.90573 5.85306 22.61470 -11.03340 
